<svg id="visual" viewBox="0 0 900 600" width="900" height="600" xmlns="http://www.w3.org/2000/svg" xmlns:xlink="http://www.w3.org/1999/xlink" version="1.1"><path d="M0 55L13.7 63C27.3 71 54.7 87 82 97C109.3 107 136.7 111 163.8 101C191 91 218 67 245.2 56C272.3 45 299.7 47 327 60C354.3 73 381.7 97 409 95C436.3 93 463.7 65 491 64C518.3 63 545.7 89 573 103C600.3 117 627.7 119 654.8 107C682 95 709 69 736.2 57C763.3 45 790.7 47 818 51C845.3 55 872.7 61 886.3 64L900 67L900 0L886.3 0C872.7 0 845.3 0 818 0C790.7 0 763.3 0 736.2 0C709 0 682 0 654.8 0C627.7 0 600.3 0 573 0C545.7 0 518.3 0 491 0C463.7 0 436.3 0 409 0C381.7 0 354.3 0 327 0C299.7 0 272.3 0 245.2 0C218 0 191 0 163.8 0C136.7 0 109.3 0 82 0C54.7 0 27.3 0 13.7 0L0 0Z" fill="#334c73"></path><path d="M0 151L13.7 151C27.3 151 54.7 151 82 156C109.3 161 136.7 171 163.8 168C191 165 218 149 245.2 144C272.3 139 299.7 145 327 156C354.3 167 381.7 183 409 181C436.3 179 463.7 159 491 155C518.3 151 545.7 163 573 176C600.3 189 627.7 203 654.8 197C682 191 709 165 736.2 152C763.3 139 790.7 139 818 138C845.3 137 872.7 135 886.3 134L900 133L900 65L886.3 62C872.7 59 845.3 53 818 49C790.7 45 763.3 43 736.2 55C709 67 682 93 654.8 105C627.7 117 600.3 115 573 101C545.7 87 518.3 61 491 62C463.7 63 436.3 91 409 93C381.7 95 354.3 71 327 58C299.7 45 272.3 43 245.2 54C218 65 191 89 163.8 99C136.7 109 109.3 105 82 95C54.7 85 27.3 69 13.7 61L0 53Z" fill="#243b5d"></path><path d="M0 253L13.7 250C27.3 247 54.7 241 82 237C109.3 233 136.7 231 163.8 242C191 253 218 277 245.2 286C272.3 295 299.7 289 327 289C354.3 289 381.7 295 409 297C436.3 299 463.7 297 491 293C518.3 289 545.7 283 573 284C600.3 285 627.7 293 654.8 292C682 291 709 281 736.2 268C763.3 255 790.7 239 818 229C845.3 219 872.7 215 886.3 213L900 211L900 131L886.3 132C872.7 133 845.3 135 818 136C790.7 137 763.3 137 736.2 150C709 163 682 189 654.8 195C627.7 201 600.3 187 573 174C545.7 161 518.3 149 491 153C463.7 157 436.3 177 409 179C381.7 181 354.3 165 327 154C299.7 143 272.3 137 245.2 142C218 147 191 163 163.8 166C136.7 169 109.3 159 82 154C54.7 149 27.3 149 13.7 149L0 149Z" fill="#162a48"></path><path d="M0 367L13.7 385C27.3 403 54.7 439 82 456C109.3 473 136.7 471 163.8 454C191 437 218 405 245.2 408C272.3 411 299.7 449 327 454C354.3 459 381.7 431 409 425C436.3 419 463.7 435 491 431C518.3 427 545.7 403 573 393C600.3 383 627.7 387 654.8 397C682 407 709 423 736.2 418C763.3 413 790.7 387 818 376C845.3 365 872.7 369 886.3 371L900 373L900 209L886.3 211C872.7 213 845.3 217 818 227C790.7 237 763.3 253 736.2 266C709 279 682 289 654.8 290C627.7 291 600.3 283 573 282C545.7 281 518.3 287 491 291C463.7 295 436.3 297 409 295C381.7 293 354.3 287 327 287C299.7 287 272.3 293 245.2 284C218 275 191 251 163.8 240C136.7 229 109.3 231 82 235C54.7 239 27.3 245 13.7 248L0 251Z" fill="#14263e"></path><path d="M0 601L13.7 601C27.3 601 54.7 601 82 601C109.3 601 136.7 601 163.8 601C191 601 218 601 245.2 601C272.3 601 299.7 601 327 601C354.3 601 381.7 601 409 601C436.3 601 463.7 601 491 601C518.3 601 545.7 601 573 601C600.3 601 627.7 601 654.8 601C682 601 709 601 736.2 601C763.3 601 790.7 601 818 601C845.3 601 872.7 601 886.3 601L900 601L900 371L886.3 369C872.7 367 845.3 363 818 374C790.7 385 763.3 411 736.2 416C709 421 682 405 654.8 395C627.7 385 600.3 381 573 391C545.7 401 518.3 425 491 429C463.7 433 436.3 417 409 423C381.7 429 354.3 457 327 452C299.7 447 272.3 409 245.2 406C218 403 191 435 163.8 452C136.7 469 109.3 471 82 454C54.7 437 27.3 401 13.7 383L0 365Z" fill="#122135"></path></svg>