<svg id="visual" viewBox="0 0 900 600" width="900" height="600" xmlns="http://www.w3.org/2000/svg" xmlns:xlink="http://www.w3.org/1999/xlink" version="1.1"><rect x="0" y="0" width="900" height="600" fill="#002233"></rect><path d="M0 291L5.2 300.5C10.3 310 20.7 329 31 332.7C41.3 336.3 51.7 324.7 62 346.8C72.3 369 82.7 425 93 426.2C103.3 427.3 113.7 373.7 124 340.5C134.3 307.3 144.7 294.7 155 308.8C165.3 323 175.7 364 186 406C196.3 448 206.7 491 217 489.2C227.3 487.3 237.7 440.7 248 407.3C258.3 374 268.7 354 279 339.7C289.3 325.3 299.7 316.7 310 312C320.3 307.3 330.7 306.7 341 317C351.3 327.3 361.7 348.7 372 389.3C382.3 430 392.7 490 403 523.3C413.3 556.7 423.7 563.3 434.2 524C444.7 484.7 455.3 399.3 465.8 378.5C476.3 357.7 486.7 401.3 497 429.5C507.3 457.7 517.7 470.3 528 468C538.3 465.7 548.7 448.3 559 429.3C569.3 410.3 579.7 389.7 590 380.5C600.3 371.3 610.7 373.7 621 384.2C631.3 394.7 641.7 413.3 652 425.3C662.3 437.3 672.7 442.7 683 446.8C693.3 451 703.7 454 714 449.5C724.3 445 734.7 433 745 406.7C755.3 380.3 765.7 339.7 776 355.7C786.3 371.7 796.7 444.3 807 445.7C817.3 447 827.7 377 838 344.3C848.3 311.7 858.7 316.3 869 348.5C879.3 380.7 889.7 440.3 894.8 470.2L900 500L900 601L894.8 601C889.7 601 879.3 601 869 601C858.7 601 848.3 601 838 601C827.7 601 817.3 601 807 601C796.7 601 786.3 601 776 601C765.7 601 755.3 601 745 601C734.7 601 724.3 601 714 601C703.7 601 693.3 601 683 601C672.7 601 662.3 601 652 601C641.7 601 631.3 601 621 601C610.7 601 600.3 601 590 601C579.7 601 569.3 601 559 601C548.7 601 538.3 601 528 601C517.7 601 507.3 601 497 601C486.7 601 476.3 601 465.8 601C455.3 601 444.7 601 434.2 601C423.7 601 413.3 601 403 601C392.7 601 382.3 601 372 601C361.7 601 351.3 601 341 601C330.7 601 320.3 601 310 601C299.7 601 289.3 601 279 601C268.7 601 258.3 601 248 601C237.7 601 227.3 601 217 601C206.7 601 196.3 601 186 601C175.7 601 165.3 601 155 601C144.7 601 134.3 601 124 601C113.7 601 103.3 601 93 601C82.7 601 72.3 601 62 601C51.7 601 41.3 601 31 601C20.7 601 10.3 601 5.2 601L0 601Z" fill="#0066FF" stroke-linecap="round" stroke-linejoin="miter"></path></svg>